<mxfile host="app.diagrams.net" modified="2021-05-30T22:36:51.694Z" agent="5.0 (X11; Linux x86_64) AppleWebKit/537.36 (KHTML, like Gecko) Chrome/90.0.4430.212 Safari/537.36" etag="OZnvGD3W-7ZX00YjRfRu" version="14.7.3" type="github">
  <diagram id="Lm1jYbHitj13cExzPW6c" name="Page-1">
    <mxGraphModel dx="1350" dy="774" grid="1" gridSize="10" guides="1" tooltips="1" connect="1" arrows="1" fold="1" page="1" pageScale="1" pageWidth="827" pageHeight="1169" math="0" shadow="0">
      <root>
        <mxCell id="0" />
        <mxCell id="1" parent="0" />
        <mxCell id="ChSlA1NN8_FkukZcsQlX-1" value="" style="ellipse;whiteSpace=wrap;html=1;aspect=fixed;fillColor=#0050ef;strokeColor=#001DBC;fontColor=#ffffff;" vertex="1" parent="1">
          <mxGeometry x="20" y="100" width="20" height="20" as="geometry" />
        </mxCell>
        <mxCell id="ChSlA1NN8_FkukZcsQlX-3" value="" style="ellipse;whiteSpace=wrap;html=1;aspect=fixed;fillColor=#a20025;strokeColor=#6F0000;fontColor=#ffffff;" vertex="1" parent="1">
          <mxGeometry x="60" y="70" width="20" height="20" as="geometry" />
        </mxCell>
        <mxCell id="ChSlA1NN8_FkukZcsQlX-4" value="" style="ellipse;whiteSpace=wrap;html=1;aspect=fixed;fillColor=#60a917;strokeColor=#2D7600;fontColor=#ffffff;" vertex="1" parent="1">
          <mxGeometry x="210" y="150" width="20" height="20" as="geometry" />
        </mxCell>
        <mxCell id="ChSlA1NN8_FkukZcsQlX-5" value="" style="ellipse;whiteSpace=wrap;html=1;aspect=fixed;fillColor=#0050ef;strokeColor=#001DBC;fontColor=#ffffff;" vertex="1" parent="1">
          <mxGeometry x="480" y="100" width="20" height="20" as="geometry" />
        </mxCell>
        <mxCell id="ChSlA1NN8_FkukZcsQlX-6" value="" style="ellipse;whiteSpace=wrap;html=1;aspect=fixed;fillColor=#a20025;strokeColor=#6F0000;fontColor=#ffffff;" vertex="1" parent="1">
          <mxGeometry x="730" y="60" width="20" height="20" as="geometry" />
        </mxCell>
        <mxCell id="ChSlA1NN8_FkukZcsQlX-7" value="" style="ellipse;whiteSpace=wrap;html=1;aspect=fixed;fillColor=#60a917;strokeColor=#2D7600;fontColor=#ffffff;" vertex="1" parent="1">
          <mxGeometry x="550" y="140" width="20" height="20" as="geometry" />
        </mxCell>
        <mxCell id="ChSlA1NN8_FkukZcsQlX-9" value="&lt;b&gt;LEARNING&lt;/b&gt;" style="shape=flexArrow;endArrow=classic;html=1;endWidth=48;endSize=8.35;width=20;strokeWidth=3;" edge="1" parent="1">
          <mxGeometry width="50" height="50" relative="1" as="geometry">
            <mxPoint x="330" y="109.5" as="sourcePoint" />
            <mxPoint x="450" y="110" as="targetPoint" />
          </mxGeometry>
        </mxCell>
        <mxCell id="ChSlA1NN8_FkukZcsQlX-10" value="" style="endArrow=classic;html=1;strokeWidth=2;entryX=0;entryY=1;entryDx=0;entryDy=0;" edge="1" parent="1" source="ChSlA1NN8_FkukZcsQlX-1" target="ChSlA1NN8_FkukZcsQlX-3">
          <mxGeometry width="50" height="50" relative="1" as="geometry">
            <mxPoint x="390" y="420" as="sourcePoint" />
            <mxPoint x="70" y="80" as="targetPoint" />
          </mxGeometry>
        </mxCell>
        <mxCell id="ChSlA1NN8_FkukZcsQlX-11" value="" style="endArrow=classic;html=1;strokeWidth=2;" edge="1" parent="1" source="ChSlA1NN8_FkukZcsQlX-1">
          <mxGeometry width="50" height="50" relative="1" as="geometry">
            <mxPoint x="390" y="420" as="sourcePoint" />
            <mxPoint x="210" y="160" as="targetPoint" />
          </mxGeometry>
        </mxCell>
        <mxCell id="ChSlA1NN8_FkukZcsQlX-13" value="" style="endArrow=classic;html=1;strokeWidth=2;" edge="1" parent="1" source="ChSlA1NN8_FkukZcsQlX-5" target="ChSlA1NN8_FkukZcsQlX-7">
          <mxGeometry width="50" height="50" relative="1" as="geometry">
            <mxPoint x="390" y="420" as="sourcePoint" />
            <mxPoint x="440" y="370" as="targetPoint" />
          </mxGeometry>
        </mxCell>
        <mxCell id="ChSlA1NN8_FkukZcsQlX-14" value="" style="endArrow=classic;html=1;strokeWidth=2;entryX=0;entryY=0.5;entryDx=0;entryDy=0;" edge="1" parent="1" source="ChSlA1NN8_FkukZcsQlX-5" target="ChSlA1NN8_FkukZcsQlX-6">
          <mxGeometry width="50" height="50" relative="1" as="geometry">
            <mxPoint x="490" y="100" as="sourcePoint" />
            <mxPoint x="740" y="70" as="targetPoint" />
          </mxGeometry>
        </mxCell>
        <mxCell id="ChSlA1NN8_FkukZcsQlX-15" value="Anchor" style="text;html=1;strokeColor=none;fillColor=none;align=center;verticalAlign=middle;whiteSpace=wrap;rounded=0;fontStyle=1" vertex="1" parent="1">
          <mxGeometry x="512" y="103" width="40" height="20" as="geometry" />
        </mxCell>
        <mxCell id="ChSlA1NN8_FkukZcsQlX-22" value="Anchor" style="text;html=1;strokeColor=none;fillColor=none;align=center;verticalAlign=middle;whiteSpace=wrap;rounded=0;fontStyle=1" vertex="1" parent="1">
          <mxGeometry x="44" y="97" width="40" height="20" as="geometry" />
        </mxCell>
        <mxCell id="ChSlA1NN8_FkukZcsQlX-23" value="Positive" style="text;html=1;strokeColor=none;fillColor=none;align=center;verticalAlign=middle;whiteSpace=wrap;rounded=0;fontStyle=1" vertex="1" parent="1">
          <mxGeometry x="575" y="140" width="40" height="20" as="geometry" />
        </mxCell>
        <mxCell id="ChSlA1NN8_FkukZcsQlX-24" value="Positive" style="text;html=1;strokeColor=none;fillColor=none;align=center;verticalAlign=middle;whiteSpace=wrap;rounded=0;fontStyle=1" vertex="1" parent="1">
          <mxGeometry x="235" y="150" width="40" height="20" as="geometry" />
        </mxCell>
        <mxCell id="ChSlA1NN8_FkukZcsQlX-25" value="Negative" style="text;html=1;strokeColor=none;fillColor=none;align=center;verticalAlign=middle;whiteSpace=wrap;rounded=0;fontStyle=1" vertex="1" parent="1">
          <mxGeometry x="760" y="60" width="40" height="20" as="geometry" />
        </mxCell>
        <mxCell id="ChSlA1NN8_FkukZcsQlX-26" value="Negative" style="text;html=1;strokeColor=none;fillColor=none;align=center;verticalAlign=middle;whiteSpace=wrap;rounded=0;fontStyle=1" vertex="1" parent="1">
          <mxGeometry x="86" y="70" width="40" height="20" as="geometry" />
        </mxCell>
      </root>
    </mxGraphModel>
  </diagram>
</mxfile>
